<svg id="visual" viewBox="0 0 900 600" width="900" height="600" xmlns="http://www.w3.org/2000/svg" xmlns:xlink="http://www.w3.org/1999/xlink" version="1.1"><g stroke-width="1" stroke-linejoin="bevel"><path d="M311 352L0 286L246 600Z" fill="#00a9ea" stroke="#00a9ea"></path><path d="M0 286L0 600L246 600Z" fill="#00ffff" stroke="#00ffff"></path><path d="M311 352L245 0L0 286Z" fill="#00d5fc" stroke="#00d5fc"></path><path d="M245 0L0 0L0 286Z" fill="#007dcb" stroke="#007dcb"></path><path d="M311 352L543 0L245 0Z" fill="#0067b9" stroke="#0067b9"></path><path d="M642 600L619 252L311 352Z" fill="#007dcb" stroke="#007dcb"></path><path d="M246 600L642 600L311 352Z" fill="#00eaff" stroke="#00eaff"></path><path d="M619 252L543 0L311 352Z" fill="#0093db" stroke="#0093db"></path><path d="M642 600L900 335L619 252Z" fill="#0051a6" stroke="#0051a6"></path><path d="M619 252L900 0L543 0Z" fill="#00d5fc" stroke="#00d5fc"></path><path d="M642 600L900 600L900 335Z" fill="#00a9ea" stroke="#00a9ea"></path><path d="M900 335L900 0L619 252Z" fill="#0093db" stroke="#0093db"></path></g></svg>